<svg xmlns="http://www.w3.org/2000/svg" viewBox="0 0 309.54 78.53"><g id="Lag_2" data-name="Lag 2"><g id="Lag_1-2" data-name="Lag 1"><path id="Path_444" data-name="Path 444" d="M0,73.65c0-2.38,1.25-3.31,2.81-3.31.62,0,1.45.31,1.87.31,2.59,0,3.1-1.76,3.31-6.63.21-6.11.52-14.71.52-23.41C8.51,35,8.3,29.42,8,24.55,7.78,21.24,7.58,18,5,18c-.83,0-1.66.31-2.18.31C.85,18.34,0,16.89,0,15c0-2.39,1.24-3.32,2.81-3.32,5.18,0,10.25.21,16.06.21,5.49,0,10.25-.21,15.22-.21a2.83,2.83,0,0,1,2.82,2.85c0,.12,0,.24,0,.36,0,1.87-.83,3.32-2.8,3.32-.51,0-1.35-.21-2.07-.21-1.45,0-2.07.83-2.28,4.25-.31,3.73-.51,9.22-.51,15,0,2.59.41,3.11,1.55,3.11,5.8,0,16.68-8.4,16.68-14.92,0-7.46-5.8-6.42-5.8-11,0-1.45,1.35-2.81,3.63-2.81,2.48,0,6.11.41,9.11.41,2.81,0,6.64-.41,9.14-.41s4.24.72,4.24,3.62c0,17.72-14.91,20.1-26.21,25.59a1.86,1.86,0,0,0-1.24,1.75,1.64,1.64,0,0,0,1.61,1.68l.25,0q4.85-.81,9.74-1.14a8.34,8.34,0,0,1,8.74,7.93,8,8,0,0,1,0,1.29c0,1.76-.31,4.87-.31,7.36,0,3.93.73,5.27,3,5.27,1.35,0,3.11-1.35,3.11-4.57,0-4-2.08-6.52-2.08-8.8a3,3,0,0,1,3.11-2.92l.21,0c3.21,0,3.73,3.73,3.73,11.08,0,13.67-5,18-14.6,18.13-11.2,0-16.27-3.42-16.27-12.74,0-3.22.31-6.94.31-10.67a7.16,7.16,0,0,0-6.59-7.7,8,8,0,0,0-1.38,0c-2.49,0-3.63.83-3.63,2.81,0,5.27.41,10.57.52,14.3.2,4.87.72,6.63,3.31,6.63.42,0,1.45-.32,2.07-.32,2,0,2.81,1.46,2.81,3.32a3,3,0,0,1-2.72,3.3h-.09c-2.69,0-10.36-.21-15.54-.21-5.8,0-13.88.21-16.78.21-2,0-2.81-1.45-2.81-3.31"/><path id="Path_445" data-name="Path 445" d="M72.79,20.51c3.83,0,7.46.62,12,.62,3.72,0,7.14-.62,10.77-.62,1.76,0,2.27.93,2.27,2.9s-.72,17.5-.72,26.2c0,2.7,0,9.84.1,14.41.1,5.18.42,6.63,1.86,6.63,1,0,1.87-.21,2.7-.21a2.89,2.89,0,0,1,3,2.73,4,4,0,0,1,0,.49c0,1.86-.83,3.31-3,3.31-2.81,0-10.88-.41-16.47-.41-4.25,0-7.87.41-11.71.41-1.75,0-2.81-.93-2.81-3.31,0-2.18,1-3.22,2.81-3.22.52,0,1.25.21,2.07.21,1.15,0,1.25-1.86,1.35-4.14.31-7.36.62-15.54.62-23.62,0-3.73-.1-7.77-.31-11.08-.21-3.94-.93-4.76-2.81-4.76-.82,0-1.45.1-1.75.1-2,0-2.49-1.76-2.49-3.42S70.83,20.51,72.79,20.51ZM98.17,8.7c0,5.8-3,7.87-11.6,8S75,14.5,75,8.7C75,2.48,80.37,0,86.57,0s11.6,2.38,11.6,8.7"/><path id="Path_446" data-name="Path 446" d="M132.59,78c-21.44,0-29.21-10.26-29.21-26.41,0-23.41,12-32.12,29.21-32.12s29.21,9.22,29.21,32.12C161.8,67.23,154,78,132.59,78m.21-52.42c-5.08,0-8,3.42-8,23.73,0,16,2.59,20.82,8,20.82s7.55-4,7.55-20.82c0-20.74-2.81-23.73-7.55-23.73"/><path id="Path_447" data-name="Path 447" d="M198,65.78c0-5.49-4.57-7.15-16.68-11-9.74-3.11-16.47-7.15-16.47-17.92,0-9.74,6.53-17.92,24.35-17.92,16,0,24.34,5.07,24.34,12.84,0,4.77-3.21,7.56-9.32,7.56s-10.46-1.75-10.46-5.8a4.2,4.2,0,0,1,2.48-3.93c.94-.52,1.45-1,1.45-1.76,0-1.76-1.55-2.9-7.35-2.9-7.15,0-10,2.28-10,6.22,0,3.62,2.38,7,17,10.67s18.13,10.46,18.13,18.85c0,11.6-8.91,17.82-26,17.82C168.8,78.53,163,72.2,163,64.85c0-5,3.52-7.87,10.26-7.87,5.9,0,10,2.49,10,6a4.24,4.24,0,0,1-1.86,4.14c-1.24.72-1.65,1.14-1.65,1.87,0,1.55,2.17,2.59,7.86,2.59,6.74,0,10.36-1.66,10.36-5.81"/><path id="Path_448" data-name="Path 448" d="M215,73.74a2.88,2.88,0,0,1,2.53-3.2h.16c.21,0,.83.1,1.55.1,1.67,0,2-1.13,2.08-3.42.21-8.49.3-16.78.3-25.27,0-7.15-.09-14.29-.3-21.24-.11-4.35-.52-6.32-2.7-6.32-.31,0-1.45.21-1.65.21-2,0-3-.73-3-3A3.23,3.23,0,0,1,216.72,8a3.52,3.52,0,0,1,.65,0c9.74,0,16-3.11,20.51-3.22,3.42.11,4,1.45,4,3.84,0,6.21-1,18.23-1,28.58,0,3,.72,3.63,2.81,3.63,3.93,0,14.4-7.15,14.4-10.56,0-2.08-1.65-3.32-5-3.32-.82,0-1.45.21-2.06.21-1.56,0-2.81-1.24-2.81-3.42a2.83,2.83,0,0,1,2.42-3.19l.39,0c3.41,0,7.87.41,11.91.41,3.62,0,9.73-.41,12.84-.41,2.28,0,3.73.83,3.73,3.73,0,11.08-16.16,12.65-25.9,17.4-1.55.72-2,1.45-2,2.7s1.14,1.86,2.58,1.86c2.08,0,5.09-1.14,8.49-1.14A7.52,7.52,0,0,1,271,51.72a7.28,7.28,0,0,1,0,1.4c0,2.49-.2,3.11-.2,5.6,0,4.76.83,6.32,3.42,6.32,1.35,0,3.1-1.34,3.1-4.56,0-4-2.07-6.53-2.07-8.81a3,3,0,0,1,3.11-2.91h.21c3.21,0,3.73,3.73,3.73,11.08,0,13.68-5,18-14.61,18.13-10.36,0-15.11-3.42-15.11-12.74,0-3.11.2-6.94.2-10.77,0-4.15-3-6.11-7.66-6.11-3.11,0-4.25,1.34-4.25,3.42,0,6.11,0,11.7.31,15.43.21,2.59.42,3.62,2.07,3.62.62,0,2.81-.51,3.74-.51,2.37,0,3,1.24,3,3.31a3,3,0,0,1-2.62,3.29,1.32,1.32,0,0,1-.28,0c-2.91,0-11.6-.31-17.41-.31-5.27,0-7.25.31-12,.31A2.94,2.94,0,0,1,215,73.79v-.06"/><path id="Path_449" data-name="Path 449" d="M309.54,66.61c0,6.83-4.24,11-12.32,11-8.91,0-12.43-4.15-12.43-11,0-8.29,4.86-13.16,12.43-13.16s12.32,5,12.32,13.16"/></g></g></svg>